<svg width="391.2125px" height="122px" xmlns="http://www.w3.org/2000/svg" viewBox="54.39375000000001 14 391.2125 122" style="background: rgba(0, 0, 0, 0);" preserveAspectRatio="xMidYMid"><defs><linearGradient id="editing-sticker-gradient" x1="0.5" y1="0.2" x2="0.5" y2="0.8"><stop offset="0" stop-color="#fd9"></stop><stop offset="1" stop-color="#9df"></stop></linearGradient><filter id="editing-sticker" x="-100%" y="-100%" width="300%" height="300%"><feMorphology operator="erode" radius="1" in="SourceAlpha" result="alpha-erode"></feMorphology><feConvolveMatrix order="3,3" divisor="1" kernelMatrix="0 1 0 1 1 1 0 1 0" in="alpha-erode" result="alpha-round"></feConvolveMatrix><feMorphology operator="dilate" radius="3.5" in="alpha-round" result="dilate-shadow"></feMorphology><feGaussianBlur in="dilate-shadow" stdDeviation="1.5" result="shadow"></feGaussianBlur><feFlood flood-color="#fff" result="flood-sticker"></feFlood><feComposite operator="in" in="flood-sticker" in2="alpha-round" result="comp-sticker"></feComposite><feMorphology operator="dilate" radius="3" in="comp-sticker" result="morph-sticker"></feMorphology><feConvolveMatrix order="3,3" divisor="1" kernelMatrix="0 1 0 1 1 1 0 1 0" in="morph-sticker" result="sticker"></feConvolveMatrix><feMerge><feMergeNode in="shadow"></feMergeNode><feMergeNode in="sticker"></feMergeNode><feMergeNode in="SourceGraphic"></feMergeNode></feMerge></filter></defs><g filter="url(#editing-sticker)"><g transform="translate(114.03499326109886, 104.44000053405762)"><path d="M30.21-33.92L30.21-33.92L30.21-33.92Q25.02-33.92 21.25-35.65L21.25-35.65L19.20-25.28L31.55-25.28L31.55-25.28Q31.55-21.89 29.86-19.74L29.86-19.74L29.86-19.74Q28.16-17.60 25.09-17.60L25.09-17.60L25.09-17.60Q21.76-17.60 18.69-18.82L18.69-18.82L18.69-18.82Q18.05-19.07 17.98-19.14L17.98-19.14L14.34 0L0.38 0L8.51-42.24L37.06-42.24L37.06-42.24Q37.06-38.34 35.23-36.13L35.23-36.13L35.23-36.13Q33.41-33.92 30.21-33.92ZM54.98-17.98L54.98-17.98L54.98-17.98Q57.28-22.08 57.28-26.24L57.28-26.24L57.28-26.24Q57.28-28.99 55.30-28.99L55.30-28.99L55.30-28.99Q53.76-28.99 52.16-26.37L52.16-26.37L52.16-26.37Q50.50-23.74 49.98-20.35L49.98-20.35L46.66 0L33.41 1.28L39.94-32.64L50.50-33.92L49.34-27.46L49.34-27.46Q52.48-33.92 59.52-33.92L59.52-33.92L59.52-33.92Q63.23-33.92 65.25-32L65.25-32L65.25-32Q67.26-30.08 67.26-26.14L67.26-26.14L67.26-26.14Q67.26-22.21 64.67-19.71L64.67-19.71L64.67-19.71Q62.08-17.22 57.66-17.22L57.66-17.22L57.66-17.22Q55.74-17.22 54.98-17.98ZM94.21-10.82L94.21-10.82L94.21-10.82Q95.81-9.73 95.81-7.33L95.81-7.33L95.81-7.33Q95.81-4.93 94.59-3.39L94.59-3.39L94.59-3.39Q93.38-1.86 91.39-0.83L91.39-0.83L91.39-0.83Q87.30 1.28 82.88 1.28L82.88 1.28L82.88 1.28Q78.46 1.28 75.87 0.32L75.87 0.32L75.87 0.32Q73.28-0.64 71.55-2.43L71.55-2.43L71.55-2.43Q68.16-5.82 68.16-12.03L68.16-12.03L68.16-12.03Q68.16-21.70 73.41-27.58L73.41-27.58L73.41-27.58Q79.04-33.92 88.83-33.92L88.83-33.92L88.83-33.92Q94.91-33.92 97.92-31.36L97.92-31.36L97.92-31.36Q100.16-29.44 100.16-26.30L100.16-26.30L100.16-26.30Q100.16-15.04 80.70-15.04L80.70-15.04L80.70-15.04Q80.45-13.38 80.45-11.97L80.45-11.97L80.45-11.97Q80.45-9.02 81.76-7.90L81.76-7.90L81.76-7.90Q83.07-6.78 85.50-6.78L85.50-6.78L85.50-6.78Q87.94-6.78 90.53-7.90L90.53-7.90L90.53-7.90Q93.12-9.02 94.21-10.82ZM81.15-17.79L81.15-17.79L81.15-17.79Q85.70-17.79 88.32-20.61L88.32-20.61L88.32-20.61Q90.94-23.30 90.94-27.58L90.94-27.58L90.94-27.58Q90.94-29.06 90.40-29.86L90.40-29.86L90.40-29.86Q89.86-30.66 88.77-30.66L88.77-30.66L88.77-30.66Q87.68-30.66 86.75-30.24L86.75-30.24L86.75-30.24Q85.82-29.82 84.86-28.42L84.86-28.42L84.86-28.42Q82.50-25.22 81.15-17.79ZM128.26-10.82L128.26-10.82L128.26-10.82Q129.86-9.73 129.86-7.33L129.86-7.33L129.86-7.33Q129.86-4.93 128.64-3.39L128.64-3.39L128.64-3.39Q127.42-1.86 125.44-0.83L125.44-0.83L125.44-0.83Q121.34 1.28 116.93 1.28L116.93 1.28L116.93 1.28Q112.51 1.28 109.92 0.32L109.92 0.32L109.92 0.32Q107.33-0.64 105.60-2.43L105.60-2.43L105.60-2.43Q102.21-5.82 102.21-12.03L102.21-12.03L102.21-12.03Q102.21-21.70 107.46-27.58L107.46-27.58L107.46-27.58Q113.09-33.92 122.88-33.92L122.88-33.92L122.88-33.92Q128.96-33.92 131.97-31.36L131.97-31.36L131.97-31.36Q134.21-29.44 134.21-26.30L134.21-26.30L134.21-26.30Q134.21-15.04 114.75-15.04L114.75-15.04L114.75-15.04Q114.50-13.38 114.50-11.97L114.50-11.97L114.50-11.97Q114.50-9.02 115.81-7.90L115.81-7.90L115.81-7.90Q117.12-6.78 119.55-6.78L119.55-6.78L119.55-6.78Q121.98-6.78 124.58-7.90L124.58-7.90L124.58-7.90Q127.17-9.02 128.26-10.82ZM115.20-17.79L115.20-17.79L115.20-17.79Q119.74-17.79 122.37-20.61L122.37-20.61L122.37-20.61Q124.99-23.30 124.99-27.58L124.99-27.58L124.99-27.58Q124.99-29.06 124.45-29.86L124.45-29.86L124.45-29.86Q123.90-30.66 122.82-30.66L122.82-30.66L122.82-30.66Q121.73-30.66 120.80-30.24L120.80-30.24L120.80-30.24Q119.87-29.82 118.91-28.42L118.91-28.42L118.91-28.42Q116.54-25.22 115.20-17.79ZM135.74-0.32L135.74-0.32L143.81-42.24L143.81-42.24Q151.36-42.88 156.22-42.88L156.22-42.88L156.22-42.88Q161.09-42.88 164.22-42.46L164.22-42.46L164.22-42.46Q167.36-42.05 169.47-40.96L169.47-40.96L169.47-40.96Q173.70-38.91 173.70-33.28L173.70-33.28L173.70-33.28Q173.70-30.02 170.88-27.26L170.88-27.26L170.88-27.26Q168.26-24.77 165.38-24.19L165.38-24.19L165.38-24.19Q168.45-23.68 170.62-21.38L170.62-21.38L170.62-21.38Q172.93-18.94 172.93-15.17L172.93-15.17L172.93-15.17Q172.93-7.87 167.49-3.62L167.49-3.62L167.49-3.62Q162.05 0.64 151.36 0.64L151.36 0.64L151.36 0.64Q144 0.64 135.74-0.32ZM153.15-20.61L149.95-4.03L149.95-4.03Q150.53-3.97 150.66-3.97L150.66-3.97L151.23-3.97L151.23-3.97Q156.48-3.97 158.72-7.42L158.72-7.42L158.72-7.42Q160.38-10.11 160.38-15.04L160.38-15.04L160.38-15.04Q160.38-17.66 158.69-19.07L158.69-19.07L158.69-19.07Q156.99-20.48 153.15-20.61L153.15-20.61ZM162.88-33.22L162.88-33.22L162.88-33.22Q162.88-38.53 157.76-38.53L157.76-38.53L157.18-38.53L157.18-38.53Q156.93-38.53 156.54-38.46L156.54-38.46L153.98-24.96L154.62-24.96L154.62-24.96Q162.88-25.15 162.88-33.22ZM192.45-3.52L192.45-3.52L192.45-3.52Q190.46 1.28 184.13 1.28L184.13 1.28L184.13 1.28Q180.93 1.28 178.88-0.96L178.88-0.96L178.88-0.96Q177.22-2.82 177.22-4.93L177.22-4.93L177.22-4.93Q177.22-9.73 179.46-20.22L179.46-20.22L184.13-44.80L197.12-46.08L190.91-13.70L190.91-13.70Q189.82-8.96 189.82-7.30L189.82-7.30L189.82-7.30Q189.82-3.65 192.45-3.52ZM211.84 1.28L211.84 1.28L211.84 1.28Q197.76 1.28 197.76-11.97L197.76-11.97L197.76-11.97Q197.76-21.38 202.94-27.46L202.94-27.46L202.94-27.46Q208.45-33.92 217.98-33.92L217.98-33.92L217.98-33.92Q224.90-33.92 228.42-30.72L228.42-30.72L228.42-30.72Q231.94-27.52 231.94-20.80L231.94-20.80L231.94-20.80Q231.94-10.56 226.43-4.61L226.43-4.61L226.43-4.61Q221.06 1.28 211.84 1.28ZM213.50-26.56L213.50-26.56L213.50-26.56Q212.74-24.83 212.13-22.24L212.13-22.24L212.13-22.24Q211.52-19.65 210.75-15.55L210.75-15.55L210.75-15.55Q209.98-11.46 209.98-6.40L209.98-6.40L209.98-6.40Q209.98-4.74 210.53-3.65L210.53-3.65L210.53-3.65Q211.07-2.56 212.54-2.56L212.54-2.56L212.54-2.56Q214.02-2.56 214.94-3.26L214.94-3.26L214.94-3.26Q215.87-3.97 216.58-5.63L216.58-5.63L216.58-5.63Q217.86-8.58 218.88-14.05L218.88-14.05L218.88-14.05Q219.90-19.52 220.00-21.89L220.00-21.89L220.00-21.89Q220.10-24.26 220.10-26.02L220.10-26.02L220.10-26.02Q220.10-27.78 219.58-28.93L219.58-28.93L219.58-28.93Q219.07-30.08 217.63-30.08L217.63-30.08L217.63-30.08Q216.19-30.08 215.23-29.18L215.23-29.18L215.23-29.18Q214.27-28.29 213.50-26.56ZM240.26-26.75L240.26-26.75L240.26-26.75Q242.43-29.82 245.73-31.87L245.73-31.87L245.73-31.87Q249.02-33.92 253.06-33.92L253.06-33.92L253.06-33.92Q257.09-33.92 259.01-32.64L259.01-32.64L271.55-33.92L267.20-9.34L267.20-9.34Q264.96 3.20 260.22 8.13L260.22 8.13L260.22 8.13Q255.68 12.80 246.85 12.80L246.85 12.80L246.85 12.80Q240.13 12.80 236.29 10.69L236.29 10.69L236.29 10.69Q232.45 8.58 232.45 5.06L232.45 5.06L232.45 5.06Q232.45 2.43 234.43 0.93L234.43 0.93L234.43 0.93Q236.42-0.58 239.49-0.58L239.49-0.58L239.49-0.58Q242.18-0.58 244.22 0.64L244.22 0.64L244.22 0.64Q245.44 1.28 246.02 2.18L246.02 2.18L246.02 2.18Q244.54 3.46 244.54 5.57L244.54 5.57L244.54 5.57Q244.54 8.32 247.10 8.32L247.10 8.32L247.10 8.32Q251.39 8.32 253.82-1.79L253.82-1.79L253.82-1.79Q254.53-4.54 255.10-7.30L255.10-7.30L255.10-7.30Q252.22-3.78 245.70-3.78L245.70-3.78L245.70-3.78Q241.15-3.78 238.53-5.95L238.53-5.95L238.53-5.95Q235.90-8.13 235.90-13.25L235.90-13.25L235.90-13.25Q235.90-16.45 236.99-20.06L236.99-20.06L236.99-20.06Q238.08-23.68 240.26-26.75ZM248.58-13.06L248.58-13.06L248.58-13.06Q248.58-8.70 250.82-8.70L250.82-8.70L250.82-8.70Q252.35-8.70 253.82-10.37L253.82-10.37L253.82-10.37Q254.98-11.71 255.42-13.70L255.42-13.70L258.69-30.14L258.69-30.14Q258.37-30.21 258.05-30.34L258.05-30.34L258.05-30.34Q257.41-30.59 256.58-30.59L256.58-30.59L256.58-30.59Q252.67-30.59 250.37-24.19L250.37-24.19L250.37-24.19Q248.58-19.20 248.58-13.06Z" fill="url(#editing-sticker-gradient)" stroke="#000" stroke-width="2.5"></path></g></g><style>text {
  font-size: 64px;
  font-family: Arial Black;
  dominant-baseline: central;
  text-anchor: middle;
}</style></svg>